<svg id="Layer_1" data-name="Layer 1" xmlns="http://www.w3.org/2000/svg" viewBox="0 0 999.56 999.56"><defs><style>.cls-1{opacity:0.25;}.cls-2{fill:#ffe600;}.cls-3{fill:#ffdc00;}.cls-4{fill:#ffca00;}.cls-5{fill:#ffa400;}.cls-6{fill:#ff7900;}.cls-7{fill:#ff5600;}.cls-8{fill:#ff3800;}.cls-9{fill:#ff1c00;}.cls-10{fill:#d90000;}.cls-11{fill:#c52b00;}.cls-12{fill:#9d0d42;}.cls-13{fill:#ac0062;}.cls-14{fill:#95004e;}.cls-15{fill:#860062;}.cls-16{fill:#72217e;}.cls-17{fill:#53357e;}.cls-18{fill:#2f357e;}.cls-19{fill:#264687;}.cls-20{fill:#3050b3;}.cls-21{fill:#0054e3;}.cls-22{fill:#0081e2;}.cls-23{fill:#2dace1;}.cls-24{fill:#00c5ed;}.cls-25{fill:#00cdd4;}.cls-26{fill:#00decf;}.cls-27{fill:#00cdc5;}.cls-28{fill:#0ab197;}.cls-29{fill:#0ab15d;}.cls-30{fill:#0aa200;}.cls-31{fill:#35bd00;}.cls-32{fill:#77e100;}.cls-33{fill:#a9e100;}.cls-34{fill:#cde600;}.cls-35{fill:#f2f500;}.cls-36{fill:#fff500;}</style></defs><title>spirograph</title><g class="cls-1"><ellipse class="cls-2" cx="499.78" cy="249.89" rx="144.65" ry="249.89"/></g><g class="cls-1"><ellipse class="cls-3" cx="456.77" cy="254.13" rx="144.65" ry="249.89" transform="translate(-37.57 82.74) rotate(-10)"/></g><g class="cls-1"><ellipse class="cls-4" cx="414.7" cy="265.4" rx="144.65" ry="249.89" transform="translate(-66.15 157.4) rotate(-20)"/></g><g class="cls-1"><ellipse class="cls-5" cx="375.22" cy="283.81" rx="144.65" ry="249.89" transform="translate(-92.02 225.19) rotate(-30)"/></g><g class="cls-1"><ellipse class="cls-6" cx="339.54" cy="308.79" rx="144.65" ry="249.89" transform="translate(-119.44 290.05) rotate(-40)"/></g><g class="cls-1"><ellipse class="cls-7" cx="308.74" cy="339.59" rx="144.65" ry="249.89" transform="translate(-150.24 357.37) rotate(-50)"/></g><g class="cls-1"><ellipse class="cls-8" cx="283.75" cy="375.28" rx="144.65" ry="249.89" transform="matrix(0.5, -0.87, 0.87, 0.5, -183.51, 432.93)"/></g><g class="cls-1"><ellipse class="cls-9" cx="265.34" cy="414.75" rx="144.65" ry="249.89" transform="translate(-215.53 521.8) rotate(-70)"/></g><g class="cls-1"><ellipse class="cls-10" cx="254.07" cy="456.83" rx="144.65" ry="249.89" transform="translate(-240.32 627.27) rotate(-80)"/></g><g class="cls-1"><ellipse class="cls-11" cx="249.89" cy="499.78" rx="249.89" ry="144.65"/></g><g class="cls-1"><ellipse class="cls-12" cx="254.07" cy="543.61" rx="249.89" ry="144.65" transform="translate(-90.92 51.94) rotate(-10)"/></g><g class="cls-1"><ellipse class="cls-13" cx="265.34" cy="585.69" rx="249.89" ry="144.65" transform="translate(-184.7 125.63) rotate(-20)"/></g><g class="cls-1"><ellipse class="cls-14" cx="283.75" cy="625.17" rx="249.89" ry="144.65" transform="translate(-274.95 225.19) rotate(-30)"/></g><g class="cls-1"><ellipse class="cls-15" cx="308.74" cy="660.85" rx="249.89" ry="144.65" transform="translate(-352.94 352.62) rotate(-40)"/></g><g class="cls-1"><ellipse class="cls-16" cx="339.54" cy="691.65" rx="249.89" ry="144.65" transform="translate(-408.93 506.72) rotate(-50)"/></g><g class="cls-1"><ellipse class="cls-17" cx="375.22" cy="716.63" rx="249.89" ry="144.65" transform="translate(-433.4 682.82) rotate(-60)"/></g><g class="cls-1"><ellipse class="cls-18" cx="414.7" cy="735.04" rx="249.89" ry="144.65" transform="translate(-418.23 872.89) rotate(-70)"/></g><g class="cls-1"><ellipse class="cls-19" cx="456.77" cy="746.31" rx="249.89" ry="144.65" transform="translate(-357.91 1066.11) rotate(-80)"/></g><g class="cls-1"><ellipse class="cls-20" cx="499.78" cy="749.67" rx="144.65" ry="249.89"/></g><g class="cls-1"><ellipse class="cls-21" cx="543.56" cy="746.31" rx="144.65" ry="249.89" transform="translate(-121.72 105.28) rotate(-10)"/></g><g class="cls-1"><ellipse class="cls-22" cx="585.63" cy="735.04" rx="144.65" ry="249.89" transform="translate(-216.46 244.18) rotate(-20)"/></g><g class="cls-1"><ellipse class="cls-23" cx="625.11" cy="716.63" rx="144.65" ry="249.89" transform="translate(-274.95 408.12) rotate(-30)"/></g><g class="cls-1"><ellipse class="cls-24" cx="660.79" cy="691.65" rx="144.65" ry="249.89" transform="translate(-290.37 586.12) rotate(-40)"/></g><g class="cls-1"><ellipse class="cls-25" cx="691.59" cy="660.85" rx="144.65" ry="249.89" transform="translate(-259.58 765.41) rotate(-50)"/></g><g class="cls-1"><ellipse class="cls-26" cx="716.57" cy="625.17" rx="144.65" ry="249.89" transform="matrix(0.5, -0.87, 0.87, 0.5, -183.51, 932.71)"/></g><g class="cls-1"><ellipse class="cls-27" cx="734.98" cy="585.69" rx="144.65" ry="249.89" transform="translate(-67.15 1075.59) rotate(-70)"/></g><g class="cls-1"><ellipse class="cls-28" cx="746.26" cy="543.61" rx="144.65" ry="249.89" transform="translate(80.93 1183.69) rotate(-80)"/></g><g class="cls-1"><ellipse class="cls-28" cx="749.67" cy="499.78" rx="249.89" ry="144.65"/></g><g class="cls-1"><ellipse class="cls-29" cx="746.26" cy="456.83" rx="249.89" ry="144.65" transform="translate(-68.37 136.08) rotate(-10)"/></g><g class="cls-1"><ellipse class="cls-30" cx="734.98" cy="414.75" rx="249.89" ry="144.65" transform="translate(-97.91 275.95) rotate(-20)"/></g><g class="cls-1"><ellipse class="cls-31" cx="716.57" cy="375.28" rx="249.89" ry="144.65" transform="translate(-92.02 408.12) rotate(-30)"/></g><g class="cls-1"><ellipse class="cls-32" cx="691.59" cy="339.59" rx="249.89" ry="144.65" transform="translate(-56.87 523.55) rotate(-40)"/></g><g class="cls-1"><ellipse class="cls-33" cx="660.79" cy="308.79" rx="249.89" ry="144.65" transform="translate(-0.89 616.06) rotate(-50)"/></g><g class="cls-1"><ellipse class="cls-34" cx="625.11" cy="283.81" rx="249.89" ry="144.65" transform="translate(66.38 682.82) rotate(-60)"/></g><g class="cls-1"><ellipse class="cls-35" cx="585.63" cy="265.4" rx="249.89" ry="144.65" transform="translate(135.55 724.5) rotate(-70)"/></g><g class="cls-1"><ellipse class="cls-36" cx="543.56" cy="254.13" rx="249.89" ry="144.65" transform="translate(198.52 744.85) rotate(-80)"/></g><g class="cls-1"><ellipse class="cls-36" cx="499.78" cy="249.89" rx="144.65" ry="249.89"/></g></svg>