<?xml version="1.0" encoding="utf-8"?>
<!-- Generator: Adobe Illustrator 23.0.3, SVG Export Plug-In . SVG Version: 6.00 Build 0)  -->
<svg version="1.1" xmlns="http://www.w3.org/2000/svg" xmlns:xlink="http://www.w3.org/1999/xlink" x="0px" y="0px"
	 viewBox="0 0 400 400" style="enable-background:new 0 0 400 400;" xml:space="preserve">
<style type="text/css">
	.st0{fill:none;stroke:#000000;stroke-width:5;stroke-miterlimit:10;}
</style>
<g id="Layer_1">
	<polyline class="st0" points="102.5,41.5 286.5,41.5 378.5,200.5 286.5,359.5 102.5,359.5 11.5,200.5 88.5,67.5 271.5,67.5 
		348.5,200.5 271.5,334.5 117.5,334.5 40.5,200.5 105.5,88.5 259.5,88.5 323.5,200.5 259.5,312.5 129.5,312.5 65.5,200.5 
		116.5,111.5 246.5,111.5 297.5,200.5 246.5,290.5 142.5,290.5 91.5,200.5 131.5,131.5 235.5,131.5 274.5,200.5 235.5,269.5 
		153.5,269.5 114.5,200.5 143.5,150.5 223.5,150.5 252.5,200.5 223.5,250.5 165.5,250.5 136.5,200.5 157.5,165.5 213.5,165.5 
		235.5,200.5 215.5,236.5 174.5,236.5 153.5,200.5 166.5,178.5 	"/>
</g>
<g id="Layer_2">
	<polyline class="st0" points="102.5,41.5 286.5,41.5 378.5,200.5 286.5,359.5 102.5,359.5 11.5,200.5 88.5,67.5 271.5,67.5 
		348.5,200.5 271.5,334.5 117.5,334.5 40.5,200.5 105.5,88.5 259.5,88.5 323.5,200.5 259.5,312.5 129.5,312.5 65.5,200.5 
		116.5,111.5 246.5,111.5 297.5,200.5 246.5,290.5 142.5,290.5 91.5,200.5 131.5,131.5 235.5,131.5 274.5,200.5 235.5,269.5 
		153.5,269.5 114.5,200.5 143.5,150.5 223.5,150.5 252.5,200.5 223.5,250.5 165.5,250.5 136.5,200.5 157.5,165.5 213.5,165.5 
		235.5,200.5 215.5,236.5 174.5,236.5 153.5,200.5 166.5,178.5 	"/>
</g>
</svg>
