<svg xmlns="http://www.w3.org/2000/svg" xmlns:xlink="http://www.w3.org/1999/xlink" width="300" height="300" viewBox="0 0 100 110">

  <g id="Demo2box-a">
    <!-- <rect width="100" height="100" fill="#fff"/> -->
    <path id="Path_2" data-name="Path 2" d="M588.458,27.6l15.529,11.758V54.92L589.12,66.177,574.253,54.92V39.362Z" transform="translate(-562 -11.88)" fill="none" stroke="#9C4F41" stroke-width="1"/>
    <path id="Path_3" data-name="Path 3" d="M0,0,14.69,9.484V25.41L0,14.745Z" transform="matrix(1, 0.017, -0.017, 1, 12.448, 28.38)" fill="#90E8C3" stroke="#9C4F41" stroke-width="1"/>
    <animateTransform
    attributeName="transform"
    attributeType="XML"
    type="translate"
    from="0 0"
    to="50 0"
    begin="0"
    dur="3s"
    repeatCount="indefinite"
    />
  </g>

  <g id="Demo2box-b">
    <!-- <rect width="100" height="100" fill="#fff"/> -->
    <path id="Path_2" data-name="Path 2" d="M588.458,27.6l15.529,11.758V54.92L589.12,66.177,574.253,54.92V39.362Z" transform="translate(-562 -11.88)" fill="none" stroke="#9C4F41" stroke-width="1"/>
    <path id="Path_3" data-name="Path 3" d="M0,0,14.69,9.484V25.41L0,14.745Z" transform="matrix(1, 0.017, -0.017, 1, 12.448, 28.38)" fill="#90E8C3" stroke="#9C4F41" stroke-width="1"/>
    <animateTransform
    attributeName="transform"
    attributeType="XML"
    type="translate"
    from="50 50"
    to="0 50"
    begin="0"
    dur="3s"
    repeatCount="indefinite"
    />
  </g>

  <g id="Demo2box-c">
    <!-- <rect width="100" height="100" fill="#fff"/> -->
    <path id="Path_2" data-name="Path 2" d="M588.458,27.6l15.529,11.758V54.92L589.12,66.177,574.253,54.92V39.362Z" transform="translate(-562 -11.88)" fill="none" stroke="#9C4F41" stroke-width="1"/>
    <path id="Path_3" data-name="Path 3" d="M0,0,14.69,9.484V25.41L0,14.745Z" transform="matrix(1, 0.017, -0.017, 1, 12.448, 28.38)" fill="#90E8C3" stroke="#9C4F41" stroke-width="1"/>
    <animateTransform
    attributeName="transform"
    attributeType="XML"
    type="translate"
    from="0 50"
    to="0 0"
    begin="0"
    dur="3s"
    repeatCount="indefinite"
    />
  </g>

  <g id="Demo2box-d">
    <!-- <rect width="100" height="100" fill="#fff"/> -->
    <path id="Path_2" data-name="Path 2" d="M588.458,27.6l15.529,11.758V54.92L589.12,66.177,574.253,54.92V39.362Z" transform="translate(-562 -11.88)" fill="none" stroke="#9C4F41" stroke-width="1"/>
    <path id="Path_3" data-name="Path 3" d="M0,0,14.69,9.484V25.41L0,14.745Z" transform="matrix(1, 0.017, -0.017, 1, 12.448, 28.38)" fill="#90E8C3" stroke="#9C4F41" stroke-width="1"/>
    <animateTransform
    attributeName="transform"
    attributeType="XML"
    type="translate"
    from="50 0"
    to="50 50"
    begin="0"
    dur="3s"
    repeatCount="indefinite"
    />
  </g>
</svg>
