<svg id="Layer_1" data-name="Layer 1" xmlns="http://www.w3.org/2000/svg" viewBox="0 0 1357 754"><defs><style>.cls-1{fill:red;}.cls-2{fill:#fff;}.cls-3{fill:blue;}.cls-4{fill:#ff0;}.cls-5{fill:none;stroke:#000;stroke-miterlimit:10;stroke-width:10px;}</style></defs><title>mondrian</title><rect class="cls-1" x="6" width="424" height="248"/><rect class="cls-2" x="6" y="264" width="180" height="356"/><rect class="cls-3" x="206" y="264" width="502" height="136"/><rect class="cls-4" x="446" width="262" height="248"/><rect class="cls-3" x="723" y="413" width="143" height="337"/><rect class="cls-4" x="206" y="413" width="151" height="341"/><rect class="cls-2" x="375" y="413" width="329" height="207"/><rect class="cls-1" x="375" y="635" width="329" height="115"/><rect class="cls-2" x="6" y="632" width="180" height="118"/><rect class="cls-3" x="723" width="634" height="152"/><rect class="cls-1" x="723" y="164" width="297" height="240"/><rect class="cls-2" x="878" y="413" width="142" height="158"/><rect class="cls-2" x="879" y="591" width="318" height="159"/><rect class="cls-4" x="1038" y="164" width="159" height="407"/><rect class="cls-1" x="1209" y="164" width="148" height="586"/><line class="cls-5" y1="258.5" x2="724" y2="258.5"/><line class="cls-5" x1="723" y1="624" x2="375" y2="624"/><line class="cls-5" x1="1209" y1="581" x2="866" y2="581"/><line class="cls-5" x1="186" y1="630.52" y2="630.52"/></svg>